<svg xmlns="http://www.w3.org/2000/svg" viewBox="0 0 560 320" role="img" aria-label="Example radial PCB placement preview">
  <rect width="560" height="320" fill="#f8fafc"/>
  <circle cx="280" cy="160" r="112" fill="none" stroke="#0f766e" stroke-width="3"/>
  <circle cx="280" cy="160" r="5" fill="#0f766e"/>
  <line x1="72" y1="160" x2="488" y2="160" stroke="#94a3b8" stroke-width="1.5"/>
  <line x1="280" y1="280" x2="280" y2="40" stroke="#94a3b8" stroke-width="1.5"/>
  <g fill="#f97316" stroke="#7c2d12" stroke-width="2">
    <circle cx="392" cy="160" r="8"/>
    <circle cx="359.2" cy="80.8" r="8"/>
    <circle cx="280" cy="48" r="8"/>
    <circle cx="200.8" cy="80.8" r="8"/>
    <circle cx="168" cy="160" r="8"/>
    <circle cx="200.8" cy="239.2" r="8"/>
    <circle cx="280" cy="272" r="8"/>
    <circle cx="359.2" cy="239.2" r="8"/>
  </g>
  <g font-family="system-ui, sans-serif" font-size="13" fill="#172033">
    <text x="404" y="150">D1</text>
    <text x="370" y="72">D2</text>
    <text x="291" y="44">D3</text>
    <text x="170" y="72">D4</text>
    <text x="134" y="150">D5</text>
    <text x="170" y="258">D6</text>
    <text x="291" y="294">D7</text>
    <text x="370" y="258">D8</text>
    <text x="494" y="151">+X</text>
    <text x="289" y="45">+Y</text>
  </g>
</svg>
